<?xml version="1.0" encoding="UTF-8" standalone="no"?>
<!DOCTYPE svg PUBLIC "-//W3C//DTD SVG 1.1//EN"
 "http://www.w3.org/Graphics/SVG/1.1/DTD/svg11.dtd">
<!-- Generated by graphviz version 2.38.0 (20140413.2041)
 -->
<!-- Title: %3 Pages: 1 -->
<svg width="161pt" height="476pt"
 viewBox="0.00 0.00 161.00 476.00" xmlns="http://www.w3.org/2000/svg" xmlns:xlink="http://www.w3.org/1999/xlink">
<g id="graph0" class="graph" transform="scale(1 1) rotate(0) translate(4 472)">
<title>%3</title>
<polygon fill="white" stroke="none" points="-4,4 -4,-472 157,-472 157,4 -4,4"/>
<!-- 3102162992712 -->
<g id="node1" class="node"><title>3102162992712</title>
<ellipse fill="none" stroke="black" cx="90" cy="-18" rx="27" ry="18"/>
<text text-anchor="middle" x="90" y="-14.9" font-family="Times New Roman,serif" font-size="12.00">g</text>
</g>
<!-- 3102162990528 -->
<g id="node2" class="node"><title>3102162990528</title>
<ellipse fill="red" stroke="black" cx="90" cy="-90" rx="33.7152" ry="18"/>
<text text-anchor="middle" x="90" y="-86.9" font-family="Times New Roman,serif" font-size="12.00">Subtract</text>
</g>
<!-- 3102162990528&#45;&gt;3102162992712 -->
<g id="edge1" class="edge"><title>3102162990528&#45;&gt;3102162992712</title>
<path fill="none" stroke="black" d="M90,-71.6966C90,-63.9827 90,-54.7125 90,-46.1124"/>
<polygon fill="black" stroke="black" points="93.5001,-46.1043 90,-36.1043 86.5001,-46.1044 93.5001,-46.1043"/>
</g>
<!-- 3102162990472 -->
<g id="node3" class="node"><title>3102162990472</title>
<ellipse fill="none" stroke="black" cx="54" cy="-162" rx="27" ry="18"/>
<text text-anchor="middle" x="54" y="-158.9" font-family="Times New Roman,serif" font-size="12.00">8</text>
</g>
<!-- 3102162990472&#45;&gt;3102162990528 -->
<g id="edge2" class="edge"><title>3102162990472&#45;&gt;3102162990528</title>
<path fill="none" stroke="black" d="M62.3496,-144.765C66.6492,-136.404 71.9918,-126.016 76.8312,-116.606"/>
<polygon fill="black" stroke="black" points="79.9847,-118.127 81.4457,-107.633 73.7596,-114.926 79.9847,-118.127"/>
</g>
<!-- 3102137770952 -->
<g id="node4" class="node"><title>3102137770952</title>
<ellipse fill="red" stroke="black" cx="54" cy="-234" rx="27" ry="18"/>
<text text-anchor="middle" x="54" y="-230.9" font-family="Times New Roman,serif" font-size="12.00">Add</text>
</g>
<!-- 3102137770952&#45;&gt;3102162990472 -->
<g id="edge3" class="edge"><title>3102137770952&#45;&gt;3102162990472</title>
<path fill="none" stroke="black" d="M54,-215.697C54,-207.983 54,-198.712 54,-190.112"/>
<polygon fill="black" stroke="black" points="57.5001,-190.104 54,-180.104 50.5001,-190.104 57.5001,-190.104"/>
</g>
<!-- 3102137770728 -->
<g id="node5" class="node"><title>3102137770728</title>
<ellipse fill="none" stroke="black" cx="85" cy="-306" rx="27" ry="18"/>
<text text-anchor="middle" x="85" y="-302.9" font-family="Times New Roman,serif" font-size="12.00">f</text>
</g>
<!-- 3102137770728&#45;&gt;3102137770952 -->
<g id="edge4" class="edge"><title>3102137770728&#45;&gt;3102137770952</title>
<path fill="none" stroke="black" d="M77.6534,-288.411C73.9858,-280.129 69.4667,-269.925 65.3646,-260.662"/>
<polygon fill="black" stroke="black" points="68.5434,-259.196 61.2938,-251.47 62.1429,-262.031 68.5434,-259.196"/>
</g>
<!-- 3102137771176 -->
<g id="node6" class="node"><title>3102137771176</title>
<ellipse fill="red" stroke="black" cx="88" cy="-378" rx="32.7527" ry="18"/>
<text text-anchor="middle" x="88" y="-374.9" font-family="Times New Roman,serif" font-size="12.00">Multiply</text>
</g>
<!-- 3102137771176&#45;&gt;3102137770728 -->
<g id="edge5" class="edge"><title>3102137771176&#45;&gt;3102137770728</title>
<path fill="none" stroke="black" d="M87.2584,-359.697C86.9278,-351.983 86.5305,-342.712 86.162,-334.112"/>
<polygon fill="black" stroke="black" points="89.6581,-333.945 85.733,-324.104 82.6645,-334.245 89.6581,-333.945"/>
</g>
<!-- 3102137771064 -->
<g id="node7" class="node"><title>3102137771064</title>
<ellipse fill="none" stroke="black" cx="27" cy="-450" rx="27" ry="18"/>
<text text-anchor="middle" x="27" y="-446.9" font-family="Times New Roman,serif" font-size="12.00">x</text>
</g>
<!-- 3102137771064&#45;&gt;3102137770952 -->
<g id="edge8" class="edge"><title>3102137771064&#45;&gt;3102137770952</title>
<path fill="none" stroke="black" d="M29.1639,-431.849C33.8343,-394.832 44.8931,-307.181 50.5447,-262.386"/>
<polygon fill="black" stroke="black" points="54.0464,-262.592 51.8258,-252.232 47.1015,-261.716 54.0464,-262.592"/>
</g>
<!-- 3102137771064&#45;&gt;3102137771176 -->
<g id="edge6" class="edge"><title>3102137771064&#45;&gt;3102137771176</title>
<path fill="none" stroke="black" d="M39.9365,-434.155C47.9628,-424.944 58.4506,-412.909 67.5805,-402.432"/>
<polygon fill="black" stroke="black" points="70.3032,-404.635 74.2343,-394.797 65.0258,-400.036 70.3032,-404.635"/>
</g>
<!-- 3102137771288 -->
<g id="node8" class="node"><title>3102137771288</title>
<ellipse fill="none" stroke="black" cx="99" cy="-450" rx="27" ry="18"/>
<text text-anchor="middle" x="99" y="-446.9" font-family="Times New Roman,serif" font-size="12.00">y</text>
</g>
<!-- 3102137771288&#45;&gt;3102137771176 -->
<g id="edge7" class="edge"><title>3102137771288&#45;&gt;3102137771176</title>
<path fill="none" stroke="black" d="M96.3372,-432.055C95.1257,-424.346 93.6614,-415.027 92.3001,-406.364"/>
<polygon fill="black" stroke="black" points="95.7247,-405.611 90.7147,-396.275 88.8096,-406.697 95.7247,-405.611"/>
</g>
<!-- 3102162990696 -->
<g id="node9" class="node"><title>3102162990696</title>
<ellipse fill="none" stroke="black" cx="126" cy="-162" rx="27" ry="18"/>
<text text-anchor="middle" x="126" y="-158.9" font-family="Times New Roman,serif" font-size="12.00">2</text>
</g>
<!-- 3102162990696&#45;&gt;3102162990528 -->
<g id="edge9" class="edge"><title>3102162990696&#45;&gt;3102162990528</title>
<path fill="none" stroke="black" d="M117.65,-144.765C113.351,-136.404 108.008,-126.016 103.169,-116.606"/>
<polygon fill="black" stroke="black" points="106.24,-114.926 98.5543,-107.633 100.015,-118.127 106.24,-114.926"/>
</g>
</g>
</svg>
